<svg style="display:none"><defs> <style> .cls-1 { fill: #fff; fill-rule: evenodd; } </style>  <style> .cls-1 { fill: #bcb5a7; fill-rule: evenodd; } </style>  <style> .cls-1 { fill: #bcb5a7; fill-rule: evenodd; } </style> </defs><symbol viewBox="0 0 16 13.031" id="cart"><path data-name="Cart Icon" class="icon-cart" d="M7.5 10.183a1.4 1.4 0 1 1-1.39 1.4 1.394 1.394 0 0 1 1.39-1.4zm5-.031a1.432 1.432 0 1 1-1.42 1.432 1.422 1.422 0 0 1 1.42-1.432zm2.8-9.1a1.007 1.007 0 0 0-1.26.66s-.99 2.513-1.5 4.31a1.315 1.315 0 0 1-1.48 1.029H8.94a1.472 1.472 0 0 1-1.48-1.038C6.55 4.213 5.02.957 5.02.957A1.632 1.632 0 0 0 3.66.001H1a1.007 1.007 0 0 0 0 2.014h2.25l2.8 5.56a2.328 2.328 0 0 0 2.08 1.491h3.84a1.962 1.962 0 0 0 2.18-1.491l1.8-5.26a1.007 1.007 0 0 0-.65-1.262c-.53-.166.52.166 0 0s.52.166 0 0 .52.167 0 .001z"/></symbol><symbol viewBox="0 0 16 15.031" id="cartbye"><path data-name="Cart Icon" class="icon-cartBye" d="M7.5 12.191a1.4 1.4 0 1 1-1.391 1.4 1.395 1.395 0 0 1 1.391-1.4zm5-.031a1.428 1.428 0 1 1-1.422 1.428A1.425 1.425 0 0 1 12.5 12.16zm2.8-9.07a1 1 0 0 0-1.252.658s-1 2.5-1.5 4.3a1.315 1.315 0 0 1-1.477 1.026H8.946a1.469 1.469 0 0 1-1.477-1.035c-.916-1.794-2.44-5.041-2.44-5.041a1.631 1.631 0 0 0-1.363-.953H1a1.004 1.004 0 0 0 0 2.008h2.248l2.8 5.543a2.34 2.34 0 0 0 2.081 1.487h3.843a1.95 1.95 0 0 0 2.175-1.487l1.808-5.245a1 1 0 0 0-.657-1.258zM9 3.053V1.017a1 1 0 1 1 2 0v2.036h2.536L10 6.6 6.465 3.05H9z"/></symbol><symbol viewBox="0 0 16 10" id="eye"><path data-name="Eye Icon" class="icon-eye" d="M15.983 4.89c-.006-.021 0-.043-.011-.064a.239.239 0 0 0-.013-.021c0-.012 0-.025-.01-.037a9.008 9.008 0 0 0-15.9 0 .259.259 0 0 0-.011.037c0 .008-.01.013-.013.022a.449.449 0 0 0-.01.064A.476.476 0 0 0 0 5a.484.484 0 0 0 .018.112.472.472 0 0 0 .01.064c0 .008.01.013.013.021a.259.259 0 0 0 .011.037 9.008 9.008 0 0 0 15.9 0 .329.329 0 0 0 .01-.037.148.148 0 0 0 .013-.021c.008-.021 0-.043.011-.064a.377.377 0 0 0-.003-.222zM8 9a8.258 8.258 0 0 1-7-4 8.124 8.124 0 0 1 14 0 8.261 8.261 0 0 1-7 4zm0-6a2 2 0 0 0-2 2 .25.25 0 1 0 .5 0A1.5 1.5 0 0 1 8 3.5.25.25 0 0 0 8 3zm-.012-1.5a3.5 3.5 0 1 0 3.5 3.5 3.5 3.5 0 0 0-3.5-3.5zm0 6.51a3 3 0 1 1 3-3 3.008 3.008 0 0 1-3 2.997z"/></symbol><symbol viewBox="0 0 9 19.19" id="facebook"><path data-name="Facebook copy" class="icon-facebook" d="M8.97 0v3.09s-2.271-.23-2.84.65c-.31.47-.126 1.87-.154 2.87h3.013c-.255 1.17-.437 1.97-.624 2.98h-2.4v9.59H1.792V9.63H.012V6.61h1.756c.09-2.21.124-4.39 1.218-5.5C4.212-.15 5.387 0 8.97 0z"/></symbol><symbol viewBox="0 0 19.21 7.82" id="flickr"><path data-name="Flickr copy" class="cls-1" d="M7.98 3.91A4 4 0 1 1 3.99.01a3.953 3.953 0 0 1 3.99 3.9zm11.22 0a4 4 0 1 1-4-3.9 3.955 3.955 0 0 1 4 3.9z"/></symbol><symbol viewBox="0 0 19.18 16.28" id="goo"><path data-name="G+ copy" class="icon-goo" d="M9.78.77H8.43a3.646 3.646 0 0 1 1.56 3.1c-.07 1.49-1.01 2.09-1.88 2.79a2.355 2.355 0 0 0-.58.7c-.31.82.53 1.29.96 1.61.39.29.73.55 1.03.81a3.023 3.023 0 0 1 1.24 2.45 3.51 3.51 0 0 1-1.62 2.85 7.025 7.025 0 0 1-3.32 1.15 8 8 0 0 1-3.88-.51 2.832 2.832 0 0 1-1.93-2.51 2.74 2.74 0 0 1 .66-1.75C2.44 9.49 3.7 9.8 6.01 9.63a6 6 0 0 1-.58-.91 1.765 1.765 0 0 1 .15-1.36 4.066 4.066 0 0 1-3.45-1 3.225 3.225 0 0 1-.92-3A3.813 3.813 0 0 1 2.88.96 5.563 5.563 0 0 1 6.07 0h5.14M3.25 2.01a4.45 4.45 0 0 0 .25 2.8A3.378 3.378 0 0 0 5 6.61a2.22 2.22 0 0 0 2.81-.89A2.555 2.555 0 0 0 8 4.86 4.4 4.4 0 0 0 6.2.96 2.2 2.2 0 0 0 4.94.74a1.952 1.952 0 0 0-1.69 1.27zm-.16 8.93a2.169 2.169 0 0 0-.98 1.12 2.32 2.32 0 0 0-.04 1.33c.33 1.15 1.69 1.81 3.12 1.94 1.54.13 3.1-.11 3.77-1.2a2.081 2.081 0 0 0 .01-2.05 4.755 4.755 0 0 0-1.61-1.42 2.117 2.117 0 0 0-.62-.42 3.369 3.369 0 0 0-.71 0 6.128 6.128 0 0 0-2.94.7zM15.02.02h1.16c0 1-.02 1.98-.02 2.98.98.04 2-.01 3.02 0v1.19H16.2c0 1.03-.02 1.97-.02 3h-1.14c0-1.02-.02-1.98-.02-3-.99-.04-1.99.01-3.01 0V3H15c0-.99.02-1.93.02-2.92 0-.03-.02-.05 0-.06z"/></symbol><symbol viewBox="0 0 17.97 18.59" id="leakedin"><path data-name="Leakedin copy" class="icon-leakedin" d="M.3 5.55h3.46v13.04H.3V5.55zm16.38.75a4.336 4.336 0 0 1 1.28 3.51v8.78h-3.49v-7.93a3.548 3.548 0 0 0-.28-1.58 1.907 1.907 0 0 0-1.9-1 2.36 2.36 0 0 0-2.36 1.47 5.115 5.115 0 0 0-.33 1.98v7.06H6.53V5.39h2.96v2.09a5.941 5.941 0 0 1 1.24-1.45 4.267 4.267 0 0 1 2.66-.79 4.963 4.963 0 0 1 3.29 1.06zM4.21 2.1A2.11 2.11 0 1 1 2.1-.01 2.119 2.119 0 0 1 4.21 2.1z"/></symbol><symbol viewBox="0 0 13.939 14" id="search"><path data-name="Search Icon" class="icon-search" d="M13.649 12.279l-2.78-2.772a6.005 6.005 0 1 0-1.42 1.409l2.78 2.777a1.002 1.002 0 1 0 1.42-1.414zM6 10.014a4 4 0 1 1 4-4 4 4 0 0 1-4 4z"/></symbol><symbol viewBox="0 0 14 14" id="select-icon"> <metadata><?xpacket begin="﻿" id="W5M0MpCehiHzreSzNTczkc9d"?> <x:xmpmeta xmlns:x="adobe:ns:meta/" x:xmptk="Adobe XMP Core 5.6-c138 79.159824, 2016/09/14-01:09:01        "> <rdf:RDF xmlns:rdf="http://www.w3.org/1999/02/22-rdf-syntax-ns#"> <rdf:Description rdf:about=""/> </rdf:RDF> </x:xmpmeta> <?xpacket end="w"?></metadata>  <path id="select-icon-Shape_2_copy_2" data-name="Shape 2 copy 2" class="cls-1" d="M901,404a7,7,0,1,0,7,7A7,7,0,0,0,901,404Zm3.836,6.414-3.1,3.172a0.091,0.091,0,0,1-.008.013l-0.24.245a0.675,0.675,0,0,1-.963,0l-0.241-.245s0-.009-0.008-0.014l-3.1-3.171a0.7,0.7,0,0,1,0-.98l0.239-.244a0.666,0.666,0,0,1,.959,0L901,411.882l2.635-2.692a0.666,0.666,0,0,1,.959,0l0.239,0.244A0.7,0.7,0,0,1,904.836,410.414Z" transform="translate(-894 -404)"/> </symbol><symbol viewBox="0 0 16 13" id="share"><path data-name="Share Icon" class="icon-share" d="M3.973 8s1.539-2.436 6.987-2.436V8L16 4.02 10.96 0v2.344c-.129-.001-6.987.289-6.987 5.656zM13 9c-.021 0 0 .447 0 1h-.01v2h-12V2H5c.553 0 1 .021 1 0a1 1 0 0 0-1-1H1.99a2 2 0 0 0-2 2v8a2 2 0 0 0 2 2h10a2 2 0 0 0 1.991-1.9c0-.033.019-.062.019-.1v-1a1 1 0 0 0-1-1z"/></symbol><symbol viewBox="0 0 16 16" id="star"><path data-name="Star Icon" class="icon-star" d="M15.93 5.969a1.172 1.172 0 0 0-.92-.779l-4.16-.638L9.04.681a1.144 1.144 0 0 0-2.08 0L5.15 4.552.99 5.19a1.172 1.172 0 0 0-.92.779 1.184 1.184 0 0 0 .27 1.178l3.05 3.139-.71 4.355a1.166 1.166 0 0 0 .47 1.135 1.162 1.162 0 0 0 1.23.067L8 13.829l3.62 2.014a1.162 1.162 0 0 0 1.23-.067 1.166 1.166 0 0 0 .47-1.135l-.71-4.355 3.05-3.139a1.184 1.184 0 0 0 .27-1.178zm-4.14 3.507a1.145 1.145 0 0 0-.31 1l.7 4.355-3.62-2.014a1.157 1.157 0 0 0-1.12 0l-3.62 2.014.71-4.355a1.181 1.181 0 0 0-.32-1L1.17 6.337l4.15-.639a1.149 1.149 0 0 0 .87-.653L8 1.174l1.81 3.871a1.149 1.149 0 0 0 .87.653l4.15.639z"/></symbol><symbol viewBox="0 0 19.188 15.9" id="twitter"><path data-name="Twitter copy" class="icon-twitter" d="M19.202 1.93c-.092.72-1.138 1.45-1.772 2 .626 9.21-9.824 14.96-17.417 10.29 2.129.02 4.527-.57 5.794-1.77-1.842-.3-3.147-1.13-3.653-2.77a4.842 4.842 0 0 0 1.661-.11C2.13 8.93.797 7.94.715 5.7a5.762 5.762 0 0 0 1.66.33A4.492 4.492 0 0 1 1.158.72a11.849 11.849 0 0 0 8.3 4.2c-.957-4.07 4.437-6.59 6.864-3.65a13.712 13.712 0 0 0 2.545-.89 5.288 5.288 0 0 1-1.66 2.11 6.106 6.106 0 0 0 1.995-.56z"/></symbol><symbol viewBox="0 0 15 15" id="view1"> <metadata><?xpacket begin="﻿" id="W5M0MpCehiHzreSzNTczkc9d"?> <x:xmpmeta xmlns:x="adobe:ns:meta/" x:xmptk="Adobe XMP Core 5.6-c138 79.159824, 2016/09/14-01:09:01        "> <rdf:RDF xmlns:rdf="http://www.w3.org/1999/02/22-rdf-syntax-ns#"> <rdf:Description rdf:about=""/> </rdf:RDF> </x:xmpmeta> <?xpacket end="w"?></metadata>  <path class="cls-1" d="M889,493h5a1,1,0,0,1,1,1v5a1,1,0,0,1-1,1h-5a1,1,0,0,1-1-1v-5A1,1,0,0,1,889,493Zm8,0h5a1,1,0,0,1,1,1v5a1,1,0,0,1-1,1h-5a1,1,0,0,1-1-1v-5A1,1,0,0,1,897,493Zm-8,8h5a1,1,0,0,1,1,1v5a1,1,0,0,1-1,1h-5a1,1,0,0,1-1-1v-5A1,1,0,0,1,889,501Zm8,0h5a1,1,0,0,1,1,1v5a1,1,0,0,1-1,1h-5a1,1,0,0,1-1-1v-5A1,1,0,0,1,897,501Z" transform="translate(-888 -493)"/> </symbol><symbol viewBox="0 0 16 12" id="view2"> <metadata><?xpacket begin="﻿" id="W5M0MpCehiHzreSzNTczkc9d"?> <x:xmpmeta xmlns:x="adobe:ns:meta/" x:xmptk="Adobe XMP Core 5.6-c138 79.159824, 2016/09/14-01:09:01        "> <rdf:RDF xmlns:rdf="http://www.w3.org/1999/02/22-rdf-syntax-ns#"> <rdf:Description rdf:about=""/> </rdf:RDF> </x:xmpmeta> <?xpacket end="w"?></metadata>  <path class="cls-1" d="M928,494a1,1,0,1,1-1,1A1,1,0,0,1,928,494Zm0,5a1,1,0,1,1-1,1A1,1,0,0,1,928,499Zm0,5a1,1,0,1,1-1,1A1,1,0,0,1,928,504Zm4-10h10a1,1,0,0,1,0,2H932A1,1,0,0,1,932,494Zm0,5h10a1,1,0,0,1,0,2H932A1,1,0,0,1,932,499Zm0,5h10a1,1,0,0,1,0,2H932A1,1,0,0,1,932,504Z" transform="translate(-927 -494)"/> </symbol></svg>