<svg xmlns="http://www.w3.org/2000/svg" width="16" height="15.031" viewBox="0 0 16 15.031"><path data-name="Cart Icon" class="icon-cartBye" d="M7.5 12.191a1.4 1.4 0 1 1-1.391 1.4 1.395 1.395 0 0 1 1.391-1.4zm5-.031a1.428 1.428 0 1 1-1.422 1.428A1.425 1.425 0 0 1 12.5 12.16zm2.8-9.07a1 1 0 0 0-1.252.658s-1 2.5-1.5 4.3a1.315 1.315 0 0 1-1.477 1.026H8.946a1.469 1.469 0 0 1-1.477-1.035c-.916-1.794-2.44-5.041-2.44-5.041a1.631 1.631 0 0 0-1.363-.953H1a1.004 1.004 0 0 0 0 2.008h2.248l2.8 5.543a2.34 2.34 0 0 0 2.081 1.487h3.843a1.95 1.95 0 0 0 2.175-1.487l1.808-5.245a1 1 0 0 0-.657-1.258zM9 3.053V1.017a1 1 0 1 1 2 0v2.036h2.536L10 6.6 6.465 3.05H9z"/></svg>