<svg xmlns="http://www.w3.org/2000/svg" width="14" height="14" viewBox="0 0 14 14"><defs><style>.cls-1{fill:#fff;fill-rule:evenodd}</style></defs><path id="Shape_2_copy_2" data-name="Shape 2 copy 2" class="cls-1" d="M901 404a7 7 0 1 0 7 7 7 7 0 0 0-7-7zm3.836 6.414l-3.1 3.172a.091.091 0 0 1-.008.013l-.24.245a.675.675 0 0 1-.963 0l-.241-.245s0-.009-.008-.014l-3.1-3.171a.7.7 0 0 1 0-.98l.239-.244a.666.666 0 0 1 .959 0l2.626 2.692 2.635-2.692a.666.666 0 0 1 .959 0l.239.244a.7.7 0 0 1 .003.98z" transform="translate(-894 -404)"/></svg>